<svg width="60" height="67" viewBox="0 0 60 67" fill="none" xmlns="http://www.w3.org/2000/svg">
<path fill-rule="evenodd" clip-rule="evenodd" d="M29.2486 1.07827C43.311 -0.573934 46.4001 -0.490962 51.4501 2.47819C53.3875 3.61728 55.0848 5.12115 56.4476 6.90625C60 11.5593 60 17.6173 60 31.5476C60 42.7716 60 48.3836 57.352 52.6032C56.3271 54.2364 55.0364 55.6876 53.5332 56.8969C49.6492 60.0213 44.0661 60.6865 32.8999 62.0168L0 66.6344V34.9794C0 20.9368 0 14.8228 4.04883 9.99526C4.2646 9.73799 4.48781 9.48703 4.71818 9.24269C10.4898 3.12118 14.1617 2.72461 24.3556 1.62367C25.8395 1.46341 27.4616 1.28822 29.2486 1.07827ZM3 34.9794V63.1839L32.514 59.0416L32.545 59.0379C38.1877 58.3656 42.2023 57.8839 45.3009 57.2001C48.3468 56.528 50.2131 55.7175 51.6527 54.5593C52.8962 53.5591 53.9635 52.359 54.8109 51.0086C55.7915 49.446 56.3762 47.5024 56.6837 44.4056C56.9966 41.2547 57 37.2199 57 31.5476C57 24.5068 56.9952 19.7168 56.5758 16.0928C56.1681 12.5687 55.3978 10.4749 54.0631 8.72671C52.9362 7.25059 51.5324 6.00668 49.9296 5.06432C47.7344 3.77365 46.1558 3.19267 43.5534 3.04008C40.7047 2.87305 36.6904 3.22456 29.5987 4.05778C27.7978 4.26936 26.1641 4.4458 24.6823 4.60583L24.6777 4.60633C19.4579 5.17006 16.3779 5.51953 13.8541 6.38741C11.5265 7.18782 9.55918 8.48134 6.90097 11.3007C6.71045 11.5028 6.52586 11.7103 6.34742 11.9231C4.80078 13.7672 3.93896 15.9015 3.481 19.419C3.00604 23.067 3 27.8738 3 34.9794ZM26.3676 22.675L41.5367 20.6779V14.0967L19.5638 16.9895V50.7395L26.3676 49.8437V36.175L40.7559 34.2807V27.6995L26.3676 29.5937V22.675Z" fill="url(#paint0_linear_25_25)"/>
<defs>
<linearGradient id="paint0_linear_25_25" x1="58.5" y1="1.66586" x2="-4.45609" y2="58.3538" gradientUnits="userSpaceOnUse">
<stop stop-color="#4AD5B8"/>
<stop offset="1" stop-color="#3AE171"/>
</linearGradient>
</defs>
</svg>
