<svg width="351" height="413" viewBox="0 0 351 413" fill="none" xmlns="http://www.w3.org/2000/svg">
<path fill-rule="evenodd" clip-rule="evenodd" d="M46.5 0C21.0949 0 0.5 20.5949 0.5 46V236.5V237.5H0.526337C1.01224 246.7 8.17065 254 17.5 254C26.8293 254 33.9878 246.7 34.4737 237.5H34.5V236.5V46C34.5 39.3726 39.8726 34 46.5 34H206.5V33.9928C206.666 33.9976 206.833 34 207 34C216.389 34 224 26.3888 224 17C224 7.61116 216.389 0 207 0C206.833 0 206.666 0.0024147 206.5 0.00721359V0H46.5ZM112 96H303C311.284 96 318 102.716 318 111V365C318 373.284 311.284 380 303 380H112C103.716 380 97 373.284 97 365V111C97 102.716 103.716 96 112 96ZM64 111C64 84.4903 85.4903 63 112 63H303C329.51 63 351 84.4903 351 111V365C351 391.51 329.51 413 303 413H112C85.4904 413 64 391.51 64 365V111Z" fill="white"/>
</svg>
