<svg width="298" height="153" viewBox="0 0 298 153" fill="none" xmlns="http://www.w3.org/2000/svg">
<path fill-rule="evenodd" clip-rule="evenodd" d="M29.9575 27.847C12.8655 29.8937 -3.27512e-06 44.3917 0 61.6058L2.11134e-05 152.434L268.736 119.744C285.609 117.691 298.163 103.158 297.741 86.1652L296.374 31.2086C295.905 12.3508 279.309 -2.01174 260.58 0.231069L29.9575 27.847ZM55.0939 69.4721L80.0657 66.4001L79.9045 55.5788L43.7322 60.0286L44.5586 115.522L55.7591 114.145L55.4245 91.6696L79.1109 88.7558L78.9498 77.9345L55.2633 80.8483L55.0939 69.4721ZM96.6255 64.363L121.597 61.291L121.436 50.4697L85.2638 54.9195L86.0902 110.413L122.263 105.964L122.101 95.1423L97.1296 98.2142L96.9561 86.5605L121.102 83.5902L120.94 72.7689L96.7949 75.7392L96.6255 64.363ZM166.182 55.8064L166.02 44.9851L125.074 50.0222L125.235 60.8435L140.108 59.0139L140.773 103.686L152.066 102.297L151.4 57.6247L166.182 55.8064ZM181.179 98.8085C182.101 98.9422 183.235 98.9263 184.581 98.7606L196.975 97.2359C201.321 96.7013 205.322 93.6147 208.978 87.976C210.237 86.0297 211.248 83.8978 212.01 81.5802L201.503 80.093C200.014 83.0559 198.482 85.1594 196.906 86.4033L184.604 87.9167C184.42 87.9393 183.8 87.4905 182.744 86.5703C181.688 85.6501 181.159 85.0974 181.156 84.9125L180.74 56.9806C180.737 56.7956 181.248 56.115 182.273 54.9388C183.298 53.7626 183.902 53.1632 184.086 53.1406L196.388 51.6272C197.995 52.4796 199.584 54.1991 201.156 56.7856L211.58 52.7234C210.815 50.7173 209.744 48.8413 208.369 47.0955C206.931 45.2339 205.16 43.6604 203.057 42.3749C200.952 41.0277 198.645 40.5085 196.135 40.8172L183.741 42.3419C182.395 42.5075 181.264 42.7701 180.35 43.1297C179.435 43.4893 178.433 44.1376 177.343 45.0747C176.435 45.8043 175.377 46.8609 174.171 48.2447C172.966 49.6285 172.034 50.8551 171.375 51.9244C170.596 53.1322 170.091 54.2136 169.86 55.1686C169.629 56.1236 169.523 57.2794 169.543 58.6359L169.951 86.0129C169.971 87.3694 170.111 88.495 170.369 89.3898C170.628 90.2846 171.163 91.238 171.975 92.25C172.663 93.092 173.597 94.0582 174.778 95.1483C176.02 96.2309 177.136 97.0511 178.126 97.6089C179.239 98.2749 180.257 98.6748 181.179 98.8085ZM257.077 33.7836L245.876 35.1615L246.208 57.4515L227.846 59.7103L227.515 37.4203L216.314 38.7981L217.14 94.292L228.341 92.9141L228.008 70.5316L246.369 68.2728L246.702 90.6553L257.903 89.2775L257.077 33.7836Z" fill="white"/>
</svg>
